<?xml version="1.0" encoding="UTF-8" standalone="no"?>
<svg
   xmlns:dc="http://purl.org/dc/elements/1.1/"
   xmlns:cc="http://creativecommons.org/ns#"
   xmlns:rdf="http://www.w3.org/1999/02/22-rdf-syntax-ns#"
   xmlns:svg="http://www.w3.org/2000/svg"
   xmlns="http://www.w3.org/2000/svg"
   xmlns:sodipodi="http://sodipodi.sourceforge.net/DTD/sodipodi-0.dtd"
   xmlns:inkscape="http://www.inkscape.org/namespaces/inkscape"
   sodipodi:docname="logo.svg"
   inkscape:version="1.0 (4035a4f, 2020-05-01)"
   inkscape:export-ydpi="192.11273"
   inkscape:export-xdpi="192.11273"
   inkscape:export-filename="/Users/xavier/Projects/FlutterProject/thaijana/assets/launcher.png"
   id="svg8"
   version="1.1"
   viewBox="0 0 135.38762 135.65158"
   height="135.65158mm"
   width="135.38762mm">
  <defs
     id="defs2" />
  <sodipodi:namedview
     inkscape:window-maximized="0"
     inkscape:window-y="23"
     inkscape:window-x="0"
     inkscape:window-height="810"
     inkscape:window-width="1252"
     fit-margin-bottom="0"
     fit-margin-right="0"
     fit-margin-left="0"
     fit-margin-top="0"
     showgrid="false"
     inkscape:document-rotation="0"
     inkscape:current-layer="layer1"
     inkscape:document-units="mm"
     inkscape:cy="310.63518"
     inkscape:cx="484.42205"
     inkscape:zoom="0.35"
     inkscape:pageshadow="2"
     inkscape:pageopacity="0.0"
     borderopacity="1.0"
     bordercolor="#666666"
     pagecolor="#ffffff"
     id="base" />
  <metadata
     id="metadata5">
    <rdf:RDF>
      <cc:Work
         rdf:about="">
        <dc:format>image/svg+xml</dc:format>
        <dc:type
           rdf:resource="http://purl.org/dc/dcmitype/StillImage" />
        <dc:title></dc:title>
      </cc:Work>
    </rdf:RDF>
  </metadata>
  <g
     transform="translate(195.64146,-12.356067)"
     id="layer1"
     inkscape:groupmode="layer"
     inkscape:label="Layer 1">
    <path
       style="fill:#1b248f;stroke:none;stroke-width:0.264583"
       d="m -123.88697,12.644167 c 15.28895,2.007437 29.256568,6.250231 41.010418,16.865976 24.646799,22.259974 30.115339,60.177142 11.64064,88.061307 -4.84759,7.31652 -11.0688,13.57339 -18.25523,18.59493 -6.393387,4.46749 -13.863108,7.85123 -21.431248,9.74327 -8.54286,2.13572 -17.47281,2.65986 -26.19374,1.48511 -32.06247,-4.31933 -57.05078,-31.98046 -58.4626,-64.21913 -1.41155,-32.235243 21.14921,-61.837778 52.64176,-68.963761 6.01716,-1.361506 12.88415,-2.377263 19.05,-1.567702 m -30.1625,118.156453 1.5875,-3.175 c -26.80996,-14.26898 -37.21761,-49.095552 -20.91531,-75.141651 3.11388,-4.974963 6.86515,-9.487432 11.39032,-13.250072 4.89981,-4.074451 10.61878,-7.391849 16.66874,-9.415912 6.32222,-2.115105 12.89421,-3.280939 19.57917,-2.988177 37.569768,1.645285 62.756377,42.878001 45.838238,76.718732 -2.51521,5.03106 -5.59996,9.76153 -9.59033,13.75833 -4.33969,4.34658 -9.215435,8.23278 -14.816658,10.84791 l 1.5875,3.175 c 4.664862,-1.94203 8.931008,-5.10804 12.699988,-8.42565 20.981329,-18.46923 24.894179,-50.535401 9.87105,-73.859747 -11.0614,-17.173416 -30.967598,-26.53784 -51.146038,-25.654158 -6.37302,0.279082 -12.93812,1.891797 -18.78542,4.41317 -6.98182,3.010509 -13.50062,7.260616 -18.77509,12.774321 -20.58617,21.520944 -20.96797,55.991919 -1.11337,78.052064 4.32488,4.80537 9.91579,9.58374 15.91971,12.17084 m 30.95625,-80.962487 14.02292,-5.820834 -10.31875,-14.022916 -8.46667,4.651031 -2.69134,2.019088 1.73884,3.648631 5.715,9.525 m -23.8125,-3.704167 c 2.78765,5.866873 8.0698,13.587942 14.02292,16.404161 l -1.32292,-6.879158 9.78958,-5.29167 -8.20208,-12.964583 -14.2875,8.73125 m 35.98333,14.287503 c -0.10292,1.292219 -0.65431,2.673609 -0.46593,3.96875 0.41963,2.885008 3.01678,4.265609 5.22843,5.55625 -3.54885,1.200679 -8.82703,2.51751 -11.81999,4.760899 -2.23018,1.671381 -3.75206,5.368142 -5.28982,7.674512 -2.62757,3.941495 -5.13317,7.964485 -7.76102,11.906245 -1.60708,2.41063 -3.73432,4.96042 -4.7625,7.672915 l 7.67292,5.02708 -5.82083,0.52917 -3.43959,25.13541 h -0.26458 l 0.26458,-15.875 -0.15954,-6.2468 -4.07379,-2.21986 2.88264,-3.96875 5.67108,-14.552075 10.23169,-12.700007 -11.64166,2.380462 -5.82083,1.47955 -6.61459,6.194155 -2.75801,2.17435 -3.59199,-2.9681 -8.99583,-7.672917 3.26761,16.139587 1.56765,7.143745 7.44432,9.78958 0.44423,8.99583 0.76994,21.69583 h 40.74583 c -0.0659,-7.94251 -2.0066,-16.18535 -2.95143,-24.07708 -0.3167,-2.64504 -1.86266,-7.28397 -0.82206,-9.78958 1.19645,-2.88025 3.84228,-5.63641 5.61896,-8.20208 4.34207,-6.269835 8.739183,-12.502095 13.061418,-18.78541 1.52029,-2.210332 3.08425,-4.39076 4.58496,-6.614581 0.55166,-0.81756 1.58644,-1.839121 1.32742,-2.910422 -0.53473,-2.210588 -2.96651,-4.740799 -4.24154,-6.614578 -3.29776,-4.846111 -6.623045,-9.674489 -9.875038,-14.552083 -0.95832,-1.437481 -3.08372,-6.053667 -4.87521,-6.351588 -1.13189,-0.188118 -2.94482,1.046428 -3.94415,1.521619 -2.88396,1.371336 -5.82745,2.624931 -8.73125,3.954463 -3.34036,1.529559 -6.72755,2.962007 -10.05416,4.52147 -0.98399,0.461428 -3.10197,0.958048 -3.31047,2.202648 -0.22542,1.347261 0.52308,6.203421 1.60761,7.07893 1.57163,1.269201 5.05354,1.39832 6.99452,1.85843 1.47849,0.350571 3.7846,1.4478 5.29167,1.11469 2.49158,-0.550601 5.62504,-4.60719 7.40833,-6.375659 m -47.62499,-2.38125 c 0.94244,2.0574 2.8165,3.799408 4.23333,5.55625 2.92841,3.631139 5.88645,7.24005 8.84343,10.847911 1.05225,1.283488 2.93847,4.735248 4.65429,5.031838 1.0832,0.18733 2.50985,-0.800619 3.43561,-1.262319 2.54742,-1.270529 5.21256,-2.333631 7.67292,-3.769519 -0.89641,-2.36511 -2.74505,-4.51458 -4.14523,-6.614581 l -7.9375,-11.90625 c -0.86915,-1.303872 -2.75934,-5.546725 -4.37012,-5.852318 -1.15834,-0.219605 -2.78738,1.421868 -3.65548,2.035968 -2.86941,2.02909 -5.81791,3.96716 -8.73125,5.93302 m -1.5875,1.322908 -8.73125,11.1125 v 0.264592 c 4.54263,4.53019 9.56548,8.599479 14.2875,12.941821 1.1041,1.015468 3.6547,4.210845 5.29166,3.976685 2.28548,-0.32729 5.79544,-4.726776 7.40834,-6.335176 v -0.264591 l -11.88509,-14.287489 -6.37116,-7.408342 m 29.89791,7.408342 4.49792,8.20208 c 2.24022,-0.815451 6.62596,-2.75405 7.9375,-4.7625 z"
       id="path24-4" />
  </g>
</svg>
